<?xml version="1.0" encoding="UTF-8"?>
<svg xmlns="http://www.w3.org/2000/svg" id="Layer_2" data-name="Layer 2" viewBox="0 0 172.91 90.67">
  <defs>
    <style>
      .cls-1 {
        font-family: Gadugi-Bold, Gadugi;
        font-size: 15.96px;
        font-weight: 700;
      }

      .cls-1, .cls-2 {
        fill: #2b338c;
      }

      .cls-3 {
        fill: #f79321;
      }

      .cls-3, .cls-2 {
        fill-rule: evenodd;
        stroke-width: 0px;
      }
    </style>
  </defs>
  <g id="Layer_1-2" data-name="Layer 1">
    <g>
      <g>
        <path class="cls-2" d="m160.74,15.48v-5.63c0-3.82,1.19-6.2,5.38-6.2h6.79v45.33c0,9.9-5.19,14.18-15.27,14.18h-12.45c-4.08,0-8-1.18-10.71-4.28-1.95-2.23-2.99-5.22-2.99-8.14l.04-23.66v-.02c.15-3.06,1-5.79,3.43-7.88,3.67-3.15,9.77-3.71,14.44-3.71h11.34Zm0,7.57h-15.12c-1.39,0-1.95,2.84-1.95,3.82v23.15c0,1.81.89,3.13,2.43,4.12,1.83,1.17,3.86,1.68,6.05,1.68s4.3-.48,6.17-1.65c1.59-1,2.42-2.36,2.42-4.21v-26.91Z"></path>
        <path class="cls-2" d="m113.03,21.09c0-1.65.08-4.06,1.69-5.06.8-.49,1.79-.55,2.72-.55h8.19v40.9c0,2.02-.09,5.2-2.21,6.31-1.22.64-2.87.47-4.22.47h-6.17V21.09Z"></path>
        <path class="cls-2" d="m80.49,54.55h3.7c8.03,0,10.34-4.13,10.34-11.28v-19.7c0-3.99,1.7-8.1,6.5-8.1h4.9v25.82c0,14.59-8.12,21.86-22.97,21.86h-14.39V24.02c0-1.78.17-3.7,1.18-5.24,1.98-3.01,6.57-3.31,9.87-3.31h.88v39.08Z"></path>
        <path class="cls-2" d="m113.03,5.61c0-1.65.08-4.06,1.69-5.06.8-.5,1.79-.55,2.72-.55h8.19v3.55c0,2.02-.09,5.2-2.21,6.31-1.22.64-2.87.47-4.22.47h-6.17v-4.72Z"></path>
        <path class="cls-2" d="m32.62,42.12v8.24c0,1.82.79,3.21,2.38,4.22,1.82,1.16,3.87,1.64,6.04,1.64s4.14-.51,5.93-1.68c1.54-1.01,2.39-2.34,2.39-4.13v-23.56c0-1.26-.01-3.82-1.88-3.82h-4.95l-2.87-6.73c-.12-.28-.25-.57-.38-.84h8.89c4.01,0,7.49,1.22,10.25,4.04,2.79,2.84,4,6.28,4,10.13v19.5c0,3.82-1.24,7.17-4,9.98-2.77,2.82-6.23,4.04-10.25,4.04h-13.79c-4.13,0-7.86-1.11-10.78-3.97-2.86-2.79-4.03-6.24-4.03-10.09v-19.86c0-3.56,1.09-6.72,3.58-9.33.57.45,1.02,1.07,1.34,1.86l8.14,20.36Z"></path>
        <path class="cls-3" d="m33.67,38.21c-2.53-6.22-6.88-16.85-7.52-18.44-.7-1.76-2.2-3.29-4.14-3.69-1.94-.41-3.82-.11-5.63.67-1.79.77-3.27,1.95-4.33,3.65-.92,1.47-1.14,2.98-.49,4.61l5.63,14.07-.05,11.22c0,2.48.87,5.75,2.09,7.18-1.32-.11-2.65-.47-3.96-1.1-3.36-1.59-5.62-4.28-7.02-7.79L1.16,30.84c-1.39-3.47-1.58-6.97-.3-10.51,1.28-3.55,3.72-5.91,7.07-7.35l11.48-4.94c3.44-1.48,6.96-1.81,10.43-.25,3.39,1.52,5.63,4.24,7.03,7.74l7.23,18.08c1.39,3.46,1.57,6.95.17,10.45-1.42,3.57-4.07,5.9-7.46,7.36l-1.33.57v-7.58c0-2.85-.73-3.55-1.81-6.21"></path>
      </g>
      <text class="cls-1" transform="translate(72.73 86.86)">
        <tspan x="0" y="0">REAL ESTATE</tspan>
      </text>
    </g>
  </g>
</svg>
