<?xml version="1.0" encoding="UTF-8"?>
<svg version="1.1" xmlns="http://www.w3.org/2000/svg" width="1325" height="1567">
<path d="M0 0 C40.59 0 81.18 0 123 0 C123.33 258.06 123.66 516.12 124 782 C134.89 776.39 145.78 770.78 157 765 C195.34701138 747.60355093 235.30304419 735.99207367 277 730 C278.13872559 729.83483887 279.27745117 729.66967773 280.45068359 729.49951172 C316.54658147 724.53933931 354.95268607 724.75250984 391 730 C392.2154248 730.17692383 393.43084961 730.35384766 394.68310547 730.53613281 C465.13236455 741.15717721 533.88483904 768.64657678 590 813 C590.81597656 813.63679687 591.63195313 814.27359375 592.47265625 814.9296875 C607.77685804 827.00812251 622.06758628 839.99842216 635.875 853.75 C636.67180176 854.54212891 637.46860352 855.33425781 638.28955078 856.15039062 C643.06514797 860.93901125 647.61005831 865.85686857 652 871 C652.88899575 872.02111826 653.77829518 873.04197225 654.66796875 874.0625 C668.14457217 889.77475702 679.75375325 906.63405465 691 924 C691.44972168 924.69416016 691.89944336 925.38832031 692.36279297 926.10351562 C734.21963211 991.45985482 754.2104135 1069.39354188 754.25 1146.5 C754.25101212 1148.27177612 754.25101212 1148.27177612 754.25204468 1150.0793457 C754.23557182 1168.25183035 753.68687931 1186.00108211 751 1204 C750.75056641 1205.74168457 750.75056641 1205.74168457 750.49609375 1207.51855469 C744.02351416 1251.68791727 730.87700894 1295.36319789 710.07617188 1334.9375 C708.85850147 1337.27118412 707.67154251 1339.61940798 706.484375 1341.96875 C691.11876277 1372.14851693 671.33566881 1399.61196784 649 1425 C648.18660156 1425.92683594 647.37320312 1426.85367187 646.53515625 1427.80859375 C640.35054328 1434.6966698 633.84519768 1441.25604912 627.3125 1447.8125 C626.42119385 1448.708479 625.5298877 1449.60445801 624.61157227 1450.52758789 C619.56856346 1455.55839397 614.44032968 1460.40201691 609 1465 C608.37053467 1465.53616943 607.74106934 1466.07233887 607.0925293 1466.62475586 C547.47729925 1517.08935438 475.69986596 1550.51034939 398.5625 1562.8125 C396.735979 1563.10519775 396.735979 1563.10519775 394.87255859 1563.40380859 C374.80026211 1566.42037736 354.77934624 1567.38068753 334.5 1567.3125 C333.36658173 1567.31067719 332.23316345 1567.30885437 331.06539917 1567.30697632 C312.87060991 1567.25790532 295.0330607 1566.59270304 277 1564 C275.26459961 1563.75854248 275.26459961 1563.75854248 273.49414062 1563.51220703 C200.31364041 1553.00739447 130.8256718 1523.05653914 73 1477 C71.59041016 1475.88044922 71.59041016 1475.88044922 70.15234375 1474.73828125 C64.52036253 1470.19942718 59.11365432 1465.46269154 53.80078125 1460.5546875 C51.6488419 1458.59183069 49.47321192 1456.68346638 47.265625 1454.78515625 C42.44934629 1450.58317854 37.94466881 1446.09125143 33.4375 1441.5625 C32.62603516 1440.75490234 31.81457031 1439.94730469 30.97851562 1439.11523438 C26.11065379 1434.23951481 21.47251384 1429.23914923 17 1424 C16.154375 1423.03578125 15.30875 1422.0715625 14.4375 1421.078125 C-23.57263556 1376.97662156 -67.18749808 1313.55629256 -67.1386652 1253.39867306 C-67.141116 1252.02384038 -67.14400087 1250.64900842 -67.14727798 1249.27417746 C-67.15502284 1245.49886056 -67.15661866 1241.72356243 -67.1572054 1237.94823855 C-67.15893818 1233.84008459 -67.16642564 1229.73194044 -67.17318195 1225.62379223 C-67.18422961 1218.42480292 -67.19160708 1211.2258171 -67.19658089 1204.02682114 C-67.20399339 1193.3221847 -67.21707805 1182.61756046 -67.23132664 1171.91293121 C-67.25513455 1153.90585459 -67.27433984 1135.89877581 -67.29092598 1117.89169121 C-67.3073644 1100.0612909 -67.32584607 1082.23089464 -67.34705925 1064.40049934 C-67.34837686 1063.29204058 -67.34969446 1062.18358181 -67.351052 1061.04153338 C-67.35775404 1055.41227805 -67.36449262 1049.78302275 -67.37124526 1044.15376747 C-67.4190139 1004.27723888 -67.46219732 964.40070651 -67.50268555 924.52416992 C-67.54203086 885.78360723 -67.58345228 847.04304767 -67.62768555 808.30249023 C-67.62904808 807.10842924 -67.63041061 805.91436825 -67.63181442 804.68412359 C-67.64549975 792.69292018 -67.65922729 780.70171682 -67.67298577 768.7105135 C-67.70101264 744.28284444 -67.72875771 719.85517507 -67.7563324 695.42750549 C-67.7576006 694.30434996 -67.7588688 693.18119444 -67.76017542 692.02400389 C-67.84483759 617.01600768 -67.92293057 542.00800435 -68 467 C-72.09680961 468.22494274 -76.19330277 469.45093681 -80.28952408 470.677845 C-81.67882965 471.09381906 -83.06821664 471.50952129 -84.45769119 471.92493057 C-94.93640876 475.05802025 -105.38087984 478.26923985 -115.75 481.75 C-116.8474202 482.11702026 -116.8474202 482.11702026 -117.9670105 482.49145508 C-144.21288785 491.29498051 -169.8999945 501.30852934 -195 513 C-196.04945801 513.48823242 -197.09891602 513.97646484 -198.18017578 514.47949219 C-205.49596313 517.90111987 -212.76282266 521.41526209 -220 525 C-221.01239746 525.50080078 -222.02479492 526.00160156 -223.06787109 526.51757812 C-280.11483227 554.94575353 -337.6505129 594.17299499 -379.2734375 642.99609375 C-381.21741046 645.25233386 -383.23323518 647.43363893 -385.25 649.625 C-390.29082782 655.2192971 -394.91089712 661.09805079 -399.50244141 667.06103516 C-401.04825404 669.06247694 -402.60743442 671.05299057 -404.16796875 673.04296875 C-456.62036989 740.291656 -486.86161197 822.53093846 -497.25 906.75 C-497.40114258 907.96550537 -497.55228516 909.18101074 -497.70800781 910.43334961 C-500.33710927 933.15311862 -501.38394113 955.88785954 -501.3125 978.75 C-501.30976578 980.59170273 -501.30976578 980.59170273 -501.30697632 982.47061157 C-501.25256218 1004.4282221 -500.37478528 1026.17017698 -498 1048 C-497.91514343 1048.78236023 -497.83028687 1049.56472046 -497.74285889 1050.37078857 C-492.25028117 1100.31664566 -482.16932804 1150.13408469 -465.72558594 1197.6784668 C-465 1200 -465 1200 -465 1202 C-465.66 1202 -466.32 1202 -467 1202 C-468.19824219 1200.6809082 -468.19824219 1200.6809082 -469.546875 1198.80078125 C-470.05484619 1198.09711426 -470.56281738 1197.39344727 -471.08618164 1196.66845703 C-471.6352417 1195.89099121 -472.18430176 1195.11352539 -472.75 1194.3125 C-473.32419678 1193.5066748 -473.89839355 1192.70084961 -474.48999023 1191.87060547 C-502.41086723 1152.43732896 -525.59371017 1110.53370033 -542 1065 C-542.37576172 1063.97245605 -542.75152344 1062.94491211 -543.13867188 1061.88623047 C-560.73851402 1013.33415295 -571.00998057 959.93717961 -571.203125 908.265625 C-571.21013931 907.00097412 -571.21715363 905.73632324 -571.22438049 904.43334961 C-571.24178945 900.37219347 -571.24881517 896.31118544 -571.25 892.25 C-571.25044186 891.55716415 -571.25088371 890.86432831 -571.25133896 890.15049744 C-571.25853853 868.61388884 -570.801864 847.38075942 -568 826 C-567.83116858 824.6405691 -567.66322161 823.28102811 -567.49609375 821.92138672 C-558.2416095 747.47509503 -533.72000933 675.62086633 -466 560 C-465.48872559 559.2790918 -464.97745117 558.55818359 -464.45068359 557.81542969 C-454.72132969 544.10495618 -444.55612754 530.87643838 -433.62890625 518.1015625 C-431.1327295 515.175514 -428.72073366 512.18643248 -426.3125 509.1875 C-423.11831705 505.25882578 -419.78945732 501.62910728 -416.1171875 498.14453125 C-414.29701792 496.30085394 -412.62571895 494.41869866 -410.94140625 492.453125 C-406.68195088 487.54852074 -402.11301188 482.96240271 -397.51196289 478.3815918 C-396.06475615 476.93974779 -394.62297974 475.49262884 -393.18164062 474.04492188 C-388.49373689 469.35370436 -383.74734302 464.78503697 -378.7097168 460.46899414 C-376.3714486 458.45994663 -374.12945291 456.35222297 -371.875 454.25 C-366.66935363 449.50325358 -361.22705414 445.15153782 -355.65625 440.84375 C-352.59785158 438.47806575 -349.58990529 436.05623566 -346.59008789 433.61694336 C-324.06553825 415.35403731 -299.62107406 399.94481715 -274.5625 385.42578125 C-250.17602071 371.18864931 -226.35024233 355.25909726 -204 338 C-203.3709375 337.51821289 -202.741875 337.03642578 -202.09375 336.54003906 C-194.58415178 330.77876918 -187.29800477 324.78380038 -180.10546875 318.6328125 C-177.15579651 316.11661783 -174.14529582 313.68107031 -171.125 311.25 C-167.44917332 308.26039856 -164.0406425 305.17380094 -160.76000977 301.7590332 C-159.10495814 300.1048999 -157.39818556 298.60447592 -155.609375 297.09765625 C-150.04361287 292.25930698 -144.875086 287.02461365 -139.67260742 281.80297852 C-137.941053 280.066064 -136.20421641 278.33456111 -134.46679688 276.60351562 C-128.76352203 270.90402083 -123.21020017 265.15967882 -118 259 C-116.9553005 257.80798568 -115.90842631 256.61787374 -114.859375 255.4296875 C-92.50023623 229.92712732 -73.06070074 202.29548997 -56 173 C-55.58041016 172.28473145 -55.16082031 171.56946289 -54.72851562 170.83251953 C-24.3927379 118.8440309 -4.29626487 60.1477082 0 0 Z " fill="#153DB5" transform="translate(571,0)"/>
<path d="M0 0 C1.9451 2.91765 2.45276317 4.62537285 3 8 C2.34 8 1.68 8 1 8 C-0.625 6 -0.625 6 -2 4 C-1.34 2.68 -0.68 1.36 0 0 Z " fill="#17109C" transform="translate(103,1194)"/>
</svg>
